<?xml version="1.0" standalone="no"?>
<!DOCTYPE svg PUBLIC "-//W3C//DTD SVG 20010904//EN"
 "http://www.w3.org/TR/2001/REC-SVG-20010904/DTD/svg10.dtd">
<svg version="1.0" xmlns="http://www.w3.org/2000/svg"
 width="700.000000pt" height="700.000000pt" viewBox="0 0 700.000000 700.000000"
 preserveAspectRatio="xMidYMid meet">
<metadata>
Created by potrace 1.14, written by Peter Selinger 2001-2017
</metadata>
<g transform="translate(0.000000,700.000000) scale(0.100000,-0.100000)"
fill="#000000" stroke="none">
<path d="M3180 6959 c-1066 -105 -2013 -679 -2593 -1570 -285 -439 -459 -912
-532 -1449 -23 -163 -31 -545 -16 -722 75 -877 466 -1680 1104 -2266 580 -533
1291 -846 2075 -913 177 -15 559 -7 722 16 1081 147 1998 752 2551 1682 236
397 385 833 456 1334 25 177 25 681 0 858 -92 653 -322 1208 -702 1697 -570
732 -1373 1191 -2305 1320 -137 19 -618 27 -760 13z m1549 -1469 l165 -230 45
63 c25 35 100 138 166 230 l119 167 138 0 139 0 -13 -24 c-7 -13 -98 -166
-203 -340 l-190 -316 -205 0 -205 0 -190 316 c-105 174 -196 327 -203 340
l-13 24 143 -1 143 0 164 -229z m372 -740 c194 -20 417 -73 597 -141 l82 -32
0 -213 c0 -118 -2 -214 -5 -214 -2 0 -42 25 -87 57 -225 153 -531 243 -830
244 -203 0 -344 -33 -455 -106 -149 -99 -209 -227 -183 -391 21 -132 81 -212
203 -270 91 -43 171 -62 482 -119 138 -25 296 -57 351 -71 200 -49 350 -122
456 -222 73 -70 110 -127 144 -227 25 -73 28 -93 28 -230 1 -144 0 -154 -30
-238 -41 -114 -84 -185 -164 -270 -148 -159 -363 -264 -613 -301 -122 -19
-391 -21 -535 -5 -197 21 -398 73 -602 154 l-105 42 -3 227 c-1 136 1 226 7
226 5 0 22 -11 38 -24 55 -46 205 -138 286 -176 316 -146 674 -192 957 -124
167 40 313 144 368 261 24 53 27 69 27 173 0 106 -2 120 -28 172 -71 146 -202
201 -657 278 -389 67 -551 116 -697 213 -172 115 -262 271 -284 495 -21 217
42 398 191 548 145 146 343 242 577 278 108 17 345 20 484 6z m-2981 -51 c311
-28 570 -117 761 -261 244 -184 406 -455 466 -782 27 -143 24 -440 -6 -575
-59 -276 -179 -499 -364 -678 -188 -182 -385 -278 -687 -334 -106 -20 -157
-22 -647 -26 l-533 -5 0 1336 0 1336 448 0 c246 0 499 -5 562 -11z"/>
<path d="M1460 3375 l0 -1038 303 6 c327 6 448 19 591 64 266 84 469 262 562
493 89 220 107 547 44 810 -11 47 -43 130 -70 185 -87 178 -203 291 -395 385
-195 95 -337 119 -742 127 l-293 6 0 -1038z"/>
</g>
</svg>
